<?xml version="1.0" standalone="no"?>
<!DOCTYPE svg PUBLIC "-//W3C//DTD SVG 20010904//EN"
 "http://www.w3.org/TR/2001/REC-SVG-20010904/DTD/svg10.dtd">
<svg version="1.0" xmlns="http://www.w3.org/2000/svg"
 width="169" height="44" viewBox="0 0 169 44" fill="none"
 preserveAspectRatio="xMidYMid meet">
<metadata>
Created by potrace 1.10, written by Peter Selinger 2001-2011
</metadata>
<g transform="translate(0.000000,78.000000) scale(0.100000,-0.100000)"
fill="#000000" stroke="none">
<path d="M380 772 c0 -10 126 -9 136 1 4 4 -25 7 -64 7 -40 0 -72 -3 -72 -8z"/>
<path d="M849 743 c0 -21 0 -87 1 -148 1 -60 2 -117 2 -125 1 -79 -6 -329 -10
-342 -2 -10 -14 -18 -26 -19 -15 0 -11 -5 19 -19 22 -10 43 -19 47 -19 5 -1 8
159 7 354 -1 342 -2 355 -20 355 -15 0 -19 -8 -20 -37z"/>
<path d="M289 737 c-43 -29 -75 -95 -89 -184 -6 -37 -13 -83 -17 -100 -3 -18
-1 -33 4 -33 6 0 15 39 21 88 20 154 42 199 116 233 28 13 34 19 20 19 -12 0
-36 -10 -55 -23z"/>
<path d="M430 740 c0 -11 7 -20 15 -20 8 0 15 9 15 20 0 11 -7 20 -15 20 -8 0
-15 -9 -15 -20z"/>
<path d="M332 730 c-42 -19 -59 -40 -48 -59 4 -6 19 -4 41 5 45 18 55 18 55
-3 0 -15 2 -15 9 -4 5 8 7 21 4 30 -3 12 0 11 11 -3 15 -19 16 -18 16 17 0 32
-3 37 -22 37 -13 0 -42 -9 -66 -20z"/>
<path d="M471 719 c0 -19 3 -29 5 -22 4 8 23 4 64 -12 50 -20 59 -21 64 -8 3
8 4 19 0 24 -9 15 -57 37 -97 44 -37 7 -37 7 -36 -26z"/>
<path d="M607 716 c22 -20 26 -27 16 -37 -15 -15 -17 -59 -4 -59 13 0 21 27
16 48 -3 9 4 -1 15 -23 11 -23 20 -32 20 -22 0 38 -51 117 -77 117 -8 0 -2
-10 14 -24z"/>
<path d="M431 593 c0 -119 12 -177 22 -108 10 73 3 208 -10 212 -10 4 -13 -21
-12 -104z"/>
<path d="M246 636 c-10 -26 -16 -50 -12 -53 3 -3 1 -14 -4 -23 -7 -13 -5 -21
5 -30 8 -7 15 -17 15 -22 0 -6 -7 -5 -15 2 -13 11 -15 8 -15 -15 l0 -27 29 24
c21 17 26 28 21 43 -13 37 -22 101 -11 85 9 -12 11 -12 17 3 3 10 2 28 -3 39
-8 19 -11 16 -27 -26z"/>
<path d="M335 633 c-5 -10 -10 -30 -12 -45 -4 -26 -3 -26 32 -16 45 14 46 33
4 66 -14 10 -18 10 -24 -5z"/>
<path d="M522 630 c-31 -29 -27 -44 13 -59 21 -7 35 -19 35 -29 1 -9 7 -2 15
17 18 41 19 49 3 33 -18 -18 -28 -14 -28 11 0 40 -14 49 -38 27z"/>
<path d="M295 598 c3 -28 0 -48 -5 -48 -6 0 -10 -7 -10 -15 0 -8 4 -15 9 -15
15 0 20 42 10 85 l-8 40 4 -47z"/>
<path d="M407 627 c-2 -7 -1 -30 3 -52 l8 -40 1 53 c1 52 -2 64 -12 39z"/>
<path d="M632 595 c-7 -22 -12 -46 -12 -52 0 -7 -4 -13 -9 -13 -5 0 -12 6 -14
13 -3 7 -6 5 -6 -5 -1 -10 3 -18 8 -18 5 0 23 -12 40 -26 31 -26 31 -26 31 -4
0 16 -4 20 -15 16 -17 -6 -20 5 -5 20 7 7 8 28 2 60 l-9 49 -11 -40z"/>
<path d="M915 538 c7 -55 35 -309 35 -325 0 -8 13 -13 33 -13 l34 0 21 94 c12
52 22 102 22 110 0 9 3 16 8 16 4 0 15 -44 26 -98 24 -125 23 -122 60 -122
l32 0 18 168 c9 92 20 177 23 190 5 20 1 22 -30 22 l-35 0 -7 -115 c-4 -63
-10 -115 -14 -115 -3 0 -15 51 -26 113 -19 107 -21 112 -46 115 -24 3 -26 0
-43 -95 -25 -139 -29 -148 -37 -83 -4 30 -7 83 -8 118 l-1 62 -36 0 -35 0 6
-42z"/>
<path d="M1340 523 c-7 -32 -25 -116 -41 -188 -16 -71 -29 -131 -29 -132 0 -2
16 -3 35 -3 30 0 35 3 35 24 0 47 10 56 56 56 40 0 44 -2 44 -24 0 -42 11 -56
41 -56 17 0 29 5 29 13 -1 6 -18 91 -39 187 l-38 175 -40 3 -41 3 -12 -58z
m79 -175 c1 -14 -7 -18 -30 -18 -27 0 -30 3 -26 23 3 12 8 40 12 62 14 91 18
93 31 20 7 -38 13 -78 13 -87z"/>
<path d="M1548 550 c-4 -28 -3 -30 29 -30 l33 0 0 -160 0 -160 33 0 32 0 -3
160 -3 160 36 0 c32 0 35 2 35 30 l0 30 -94 0 -94 0 -4 -30z"/>
<path d="M1797 562 c-14 -16 -17 -43 -17 -174 0 -183 2 -188 91 -188 73 0 90
14 97 79 l5 52 -34 -3 c-30 -3 -34 -6 -34 -33 0 -27 -3 -30 -30 -30 l-30 0 0
125 0 125 30 0 c27 0 30 -3 30 -30 0 -27 4 -30 34 -33 l34 -3 -5 52 c-7 65
-24 79 -98 79 -42 0 -61 -5 -73 -18z"/>
<path d="M2015 390 l0 -190 33 0 32 0 0 80 0 80 30 0 30 0 0 -80 0 -80 35 0
35 0 0 190 0 190 -35 0 -35 0 0 -80 0 -80 -30 0 -30 0 0 80 0 80 -32 0 -33 0
0 -190z"/>
<path d="M2255 390 l0 -190 98 0 97 0 0 30 0 30 -65 0 -65 0 0 50 0 50 50 0
c49 0 50 1 50 30 0 29 -1 30 -50 30 l-50 0 0 50 0 50 65 0 65 0 0 30 0 30 -97
0 -98 0 0 -190z"/>
<path d="M2490 390 l0 -190 35 0 35 0 0 66 c0 57 2 65 17 62 13 -2 22 -22 32
-66 14 -61 15 -62 49 -62 23 0 33 4 29 13 -2 6 -10 35 -17 63 -12 45 -11 54 3
75 13 17 17 45 17 106 0 112 -10 123 -120 123 l-80 0 0 -190z m135 65 l0 -60
-32 -3 -33 -3 0 66 0 66 33 -3 32 -3 0 -60z"/>
<path d="M2756 561 c-13 -15 -16 -34 -14 -97 l3 -79 63 -19 63 -20 -3 -40 c-3
-38 -5 -41 -33 -41 -27 0 -30 4 -33 33 -3 28 -7 32 -33 32 -28 0 -29 -2 -29
-48 0 -65 19 -82 93 -82 84 0 99 18 95 117 l-3 77 -63 20 -63 20 3 41 c3 37 5
40 33 40 27 0 30 -3 30 -30 0 -27 4 -30 33 -33 32 -3 32 -3 32 42 0 66 -23 86
-98 86 -45 0 -63 -4 -76 -19z"/>
<path d="M274 485 c-14 -14 -29 -25 -34 -25 -14 0 -25 -26 -69 -154 -39 -113
-40 -117 -18 -110 28 8 24 4 32 39 5 24 4 27 -5 15 -10 -13 -11 -12 -6 3 3 10
6 21 6 23 0 3 5 2 12 -2 7 -5 8 -3 3 6 -8 14 42 130 63 143 6 4 12 17 12 27 0
21 34 28 45 10 3 -5 -1 -10 -9 -10 -20 0 -58 -52 -85 -115 -18 -43 -18 -47 -3
-29 14 16 23 19 40 13 23 -9 26 -14 36 -62 4 -17 11 -25 18 -21 6 4 8 3 4 -4
-3 -6 -2 -13 4 -17 6 -4 10 7 10 27 0 22 -3 29 -9 19 -13 -19 -24 4 -17 34 5
19 0 28 -19 41 -19 13 -23 20 -14 30 6 7 8 17 5 23 -3 5 3 7 14 4 11 -3 17 -9
14 -14 -3 -5 0 -9 5 -9 6 0 11 5 11 12 0 6 6 4 13 -6 12 -17 18 -17 50 -7 46
15 48 33 5 29 -18 -2 -34 2 -35 7 -2 6 9 10 25 10 15 0 30 5 35 10 10 14 27
-14 27 -44 0 -13 -3 -22 -6 -18 -3 3 -19 1 -36 -5 -38 -13 -23 -30 29 -34 21
-1 28 0 16 3 -25 5 -32 23 -9 23 10 0 16 13 18 37 2 20 9 39 17 41 8 3 11 0 7
-6 -4 -7 5 -9 29 -5 28 4 35 2 35 -11 0 -13 -7 -15 -40 -10 -36 6 -40 4 -40
-14 0 -33 11 -52 30 -52 29 0 33 17 5 24 -14 4 -25 10 -25 15 0 6 12 6 31 1
41 -12 89 -2 82 16 -3 8 -11 14 -19 14 -8 0 -14 7 -14 15 0 8 9 15 19 15 12 0
18 -7 17 -17 0 -10 4 -17 10 -16 7 1 15 -9 18 -23 5 -20 1 -30 -19 -45 -23
-19 -37 -47 -16 -35 5 4 12 0 14 -6 4 -10 6 -10 6 0 1 7 7 20 15 28 13 12 15
10 19 -18 l4 -33 1 34 c2 33 2 34 22 16 28 -25 25 -12 -12 57 -18 33 -42 65
-55 71 -29 13 -30 27 -2 27 12 0 23 -8 26 -20 3 -11 9 -20 13 -20 13 0 81
-161 75 -179 -8 -25 3 -48 26 -54 10 -3 19 -2 19 1 1 28 -87 255 -99 260 -9 3
-21 13 -28 21 -6 9 -15 16 -20 17 -4 0 -16 4 -26 9 -17 7 -84 1 -94 -9 -3 -3
-2 -9 2 -15 9 -16 45 -13 51 4 6 15 44 22 44 7 0 -4 -23 -18 -52 -31 -41 -19
-62 -22 -106 -18 -30 3 -62 13 -71 21 -10 9 -25 16 -34 16 -9 0 -17 5 -17 10
0 16 42 11 55 -6 8 -11 19 -14 33 -10 45 15 12 36 -56 36 -22 0 -41 -8 -58
-25z"/>
<path d="M320 322 c0 -6 -3 -19 -6 -29 -6 -17 -6 -17 8 1 18 23 38 14 31 -14
-8 -29 12 -24 26 6 14 31 15 30 -26 39 -20 4 -33 3 -33 -3z"/>
<path d="M523 323 c-27 -5 -26 -2 -12 -41 13 -37 32 -33 23 4 -5 21 -3 25 11
22 10 -2 20 3 22 10 5 12 -3 13 -44 5z"/>
<path d="M397 270 c-9 -22 -17 -56 -17 -75 0 -19 -4 -35 -10 -35 -5 0 -10 -4
-10 -10 0 -5 9 -10 20 -10 11 0 20 -7 20 -16 0 -8 -4 -12 -10 -9 -5 3 -10 2
-10 -4 0 -5 9 -9 20 -8 11 1 20 5 20 9 0 13 50 9 51 -4 0 -7 5 -3 11 9 6 13
19 23 29 23 25 0 14 26 -13 33 -15 4 -18 3 -10 -5 16 -16 -11 -38 -47 -38 -32
0 -43 11 -47 47 -3 23 -2 23 25 7 26 -15 30 -15 53 0 34 23 38 43 17 91 -10
22 -19 33 -19 25 0 -9 -3 -11 -8 -5 -4 6 -16 11 -27 13 -15 2 -24 -8 -38 -38z
m67 -21 c11 9 15 7 20 -15 9 -33 4 -38 -40 -38 -37 0 -60 20 -44 40 6 6 6 14
2 18 -4 4 5 2 20 -5 21 -9 31 -9 42 0z"/>
<path d="M251 283 c0 -13 -10 -32 -21 -43 -26 -26 -25 -30 5 -30 23 0 25 -4
24 -42 0 -24 -3 -38 -5 -32 -6 15 -43 6 -69 -16 -11 -10 -35 -21 -52 -25 -37
-8 -39 -10 -18 -32 12 -11 13 -19 5 -28 -7 -8 -7 -15 -1 -19 12 -8 41 3 41 16
0 6 -6 8 -13 5 -8 -3 -14 3 -14 14 -1 14 12 25 48 40 27 12 49 26 49 31 0 5 5
6 11 3 6 -4 7 -19 4 -36 -4 -16 -3 -29 2 -29 5 0 14 -13 20 -30 18 -49 39 -38
34 18 l-5 47 -7 -35 c-7 -38 -10 -29 -15 53 l-2 39 29 -34 c15 -18 28 -38 29
-44 0 -16 34 -44 53 -44 11 0 14 5 10 16 -3 9 0 20 7 24 9 6 7 10 -9 15 -11 3
-21 10 -21 15 0 5 -7 16 -17 25 -9 9 -16 31 -16 48 0 18 -2 26 -5 19 -6 -20
-70 51 -75 84 -3 22 -4 24 -6 7z m54 -113 c9 -18 11 -31 5 -35 -7 -5 -40 53
-40 72 0 11 22 -11 35 -37z"/>
<path d="M560 270 c-2 -8 -4 -35 -5 -60 -2 -25 -3 -53 -4 -62 -1 -10 -8 -18
-16 -18 -8 0 -15 -9 -15 -20 0 -12 -7 -20 -16 -20 -11 0 -14 -5 -10 -16 4 -9
1 -23 -5 -30 -9 -11 -8 -14 3 -14 7 0 14 10 15 21 2 25 19 46 29 36 4 -4 0
-15 -9 -25 -10 -10 -14 -21 -11 -25 14 -14 -43 -29 -93 -24 -32 3 -51 2 -48
-4 4 -5 33 -9 66 -9 55 0 62 3 87 32 15 17 25 33 22 34 -3 1 6 14 19 28 18 19
21 29 13 38 -7 9 -6 23 5 48 12 25 17 30 20 18 2 -9 -1 -26 -6 -37 -14 -25
-14 -34 -1 -26 6 4 10 -15 9 -52 -1 -50 -3 -53 -8 -23 l-7 35 -5 -47 c-3 -34
-1 -48 8 -48 7 0 13 4 13 8 0 5 9 20 21 33 13 15 18 31 14 44 -29 94 -26 125
13 125 l27 0 -25 24 -25 24 -37 -42 c-21 -22 -38 -35 -38 -28 0 17 20 54 34
65 7 6 5 7 -6 3 -10 -3 -18 1 -21 12 -4 13 -5 14 -7 2z"/>
<path d="M141 135 c-13 -7 -32 -10 -43 -7 -10 2 -24 -1 -31 -7 -8 -6 -17 -8
-20 -4 -8 7 -47 -26 -47 -40 0 -5 8 -6 18 -2 9 4 46 16 81 26 36 10 69 23 74
28 15 15 -7 20 -32 6z"/>
<path d="M640 132 c0 -5 18 -17 39 -28 22 -10 38 -21 36 -24 -2 -3 4 -6 13 -6
29 -1 44 -8 70 -31 25 -23 92 -33 92 -13 0 13 -54 40 -80 40 -11 0 -20 4 -20
10 0 5 -15 12 -34 16 -19 3 -42 15 -52 25 -17 19 -64 27 -64 11z"/>
<path d="M22 53 c-30 -21 -28 -28 11 -28 37 0 80 21 72 36 -9 14 -57 10 -83
-8z"/>
<path d="M735 40 c-8 -14 3 -30 21 -30 8 0 14 5 14 10 0 6 -5 10 -11 10 -5 0
-7 5 -4 10 3 6 2 10 -4 10 -5 0 -13 -4 -16 -10z"/>
</g>
</svg>
